<svg id="BMPO_logo" xmlns="http://www.w3.org/2000/svg" width="178.307" height="69.353" viewBox="0 0 178.307 69.353">
  <rect id="사각형_51" data-name="사각형 51" width="178.306" height="69.353" fill="none"/>
  <g id="그룹_22" data-name="그룹 22" transform="translate(0 0.991)">
    <path id="패스_1" data-name="패스 1" d="M0,0H12.622c6.454,0,10.091,3.385,10.091,8.749a5.828,5.828,0,0,1-3.388,5.22,6.972,6.972,0,0,1,4.743,6.48c0,5.437-3.851,8.893-10.376,8.893H0ZM12.337,11.881c2.461,0,3.887-1.08,3.887-3.133S14.8,5.58,12.337,5.58H6.489v6.3Zm1.07,11.88c2.568,0,4.171-1.151,4.171-3.313s-1.6-3.312-4.171-3.312H6.489v6.624Z" fill="#6557df"/>
    <path id="패스_2" data-name="패스 2" d="M32.36,0h5.17L47.55,16.417,57.57,0h5.17V29.341H56.25V13.248L49.51,24.517H45.588L38.849,13.248V29.341H32.36Z" transform="translate(-0.305)"/>
    <path id="패스_3" data-name="패스 3" d="M.467,37.992H11.628c7.559,0,11.98,4.248,11.98,10.728,0,6.552-4.421,10.8-11.98,10.8H6.957v7.811H.467ZM11.343,53.724c3.6,0,5.776-1.728,5.776-5,0-3.24-2.174-4.933-5.776-4.933H6.957v9.937Z" transform="translate(-0.004 0.007)"/>
    <path id="패스_4" data-name="패스 4" d="M31.856,52.662c0-8.894,6.668-15.409,15.689-15.409s15.689,6.515,15.689,15.409S56.566,68.07,47.545,68.07,31.856,61.554,31.856,52.662m24.889,0c0-5.545-3.923-9.5-9.2-9.5s-9.2,3.96-9.2,9.5c0,5.508,3.923,9.5,9.2,9.5s9.2-4,9.2-9.5" transform="translate(-0.3 0.007)"/>
  </g>
  <g id="그룹_23" data-name="그룹 23" transform="translate(76.607 0.991)">
    <path id="패스_5" data-name="패스 5" d="M76.145,0h4.912c2.511,0,3.927,1.316,3.927,3.4a2.265,2.265,0,0,1-1.318,2.031,2.714,2.714,0,0,1,1.845,2.522c0,2.115-1.5,3.461-4.038,3.461H76.145Zm4.8,4.623c.957,0,1.512-.42,1.512-1.219S81.9,2.171,80.946,2.171H78.671V4.623Zm.416,4.624c1,0,1.624-.448,1.624-1.289s-.624-1.289-1.624-1.289H78.671V9.247Z" transform="translate(-75.646)"/>
    <path id="패스_6" data-name="패스 6" d="M86.9,7.957V3.208h2.47V7.537c0,1.246.5,1.933,1.429,1.933.972,0,1.554-.771,1.554-2.045V3.208h2.47v8.209H92.35v-.841a2.659,2.659,0,0,1-2.275,1.037c-1.887,0-3.178-1.386-3.178-3.657" transform="translate(-75.747 0.001)"/>
    <path id="패스_7" data-name="패스 7" d="M103.882,5.673H101.5c-.084-.5-.653-.812-1.374-.812-.75,0-1.291.266-1.291.63,0,.407.541.6,1.929.827,2.4.364,3.261,1.162,3.261,2.577,0,1.68-1.748,2.717-3.816,2.717-2.123,0-3.733-1.064-3.816-2.788h2.386c.083.533.693.883,1.471.883s1.374-.294,1.374-.673-.556-.643-1.956-.853c-1.944-.3-3.219-.9-3.219-2.564,0-1.6,1.651-2.605,3.719-2.605,2.026,0,3.622,1.036,3.719,2.661" transform="translate(-75.836 0.001)"/>
    <path id="패스_8" data-name="패스 8" d="M105.138,7.313a3.979,3.979,0,0,1,3.954-4.3,2.732,2.732,0,0,1,2.332,1.036v-.84h2.47v8.209h-2.47v-.84a2.733,2.733,0,0,1-2.332,1.037,3.98,3.98,0,0,1-3.954-4.3m6.328,0a1.982,1.982,0,0,0-1.984-2.171,1.956,1.956,0,0,0-1.929,2.171,1.956,1.956,0,0,0,1.929,2.172,1.982,1.982,0,0,0,1.984-2.172" transform="translate(-75.919 0.001)"/>
    <path id="패스_9" data-name="패스 9" d="M115.849,3.208h2.47v.84a2.659,2.659,0,0,1,2.276-1.036c1.887,0,3.178,1.386,3.178,3.656v4.75H121.3V7.089c0-1.247-.5-1.934-1.429-1.934-.971,0-1.554.771-1.554,2.045v4.218h-2.47Z" transform="translate(-76.019 0.001)"/>
    <path id="패스_10" data-name="패스 10" d="M76.146,17.851h2.012l3.9,6.389,3.9-6.389h2.012V29.269H85.442V23.006l-2.623,4.386H81.294l-2.623-4.386v6.263H76.146Z" transform="translate(-75.646 0.003)"/>
    <path id="패스_11" data-name="패스 11" d="M89.6,25.163a4.233,4.233,0,1,1,8.465,0,5.677,5.677,0,0,1-.056.8H92.055a1.724,1.724,0,0,0,1.776,1.5,1.671,1.671,0,0,0,1.5-.644h2.483a3.912,3.912,0,0,1-3.982,2.647,4.1,4.1,0,0,1-4.232-4.3m6.05-.812a1.734,1.734,0,0,0-1.818-1.513,1.708,1.708,0,0,0-1.79,1.513Z" transform="translate(-75.772 0.004)"/>
    <path id="패스_12" data-name="패스 12" d="M104.4,23.2h-1.61v6.066h-2.47V23.2h-1.61V21.059h1.61V18.622h2.47v2.437h1.61Z" transform="translate(-75.858 0.003)"/>
    <path id="패스_13" data-name="패스 13" d="M105.615,21.059h2.47v.84a2.659,2.659,0,0,1,2.276-1.036,3,3,0,0,1,1.068.139l.028,2.34a2.712,2.712,0,0,0-1.262-.28,1.9,1.9,0,0,0-2.11,2v4.2h-2.47Z" transform="translate(-75.923 0.004)"/>
    <path id="패스_14" data-name="패스 14" d="M120.615,25.164a4.316,4.316,0,0,1-8.631,0,4.316,4.316,0,0,1,8.631,0m-6.244,0a1.942,1.942,0,1,0,3.857,0,1.942,1.942,0,1,0-3.857,0" transform="translate(-75.983 0.004)"/>
    <path id="패스_15" data-name="패스 15" d="M122.149,21.059h2.47v.84a2.733,2.733,0,0,1,2.331-1.036,3.979,3.979,0,0,1,3.955,4.3,3.98,3.98,0,0,1-3.955,4.3,2.733,2.733,0,0,1-2.331-1.037v4.259h-2.47Zm6.341,4.1a1.956,1.956,0,0,0-1.929-2.171,1.981,1.981,0,0,0-1.984,2.171,1.982,1.982,0,0,0,1.984,2.172,1.956,1.956,0,0,0,1.929-2.172" transform="translate(-76.079 0.004)"/>
    <path id="패스_16" data-name="패스 16" d="M140.649,25.164a4.316,4.316,0,0,1-8.631,0,4.316,4.316,0,0,1,8.631,0m-6.244,0a1.942,1.942,0,1,0,3.857,0,1.942,1.942,0,1,0-3.857,0" transform="translate(-76.172 0.004)"/>
    <rect id="사각형_16" data-name="사각형 16" width="2.47" height="11.769" transform="translate(65.916 17.503)"/>
    <path id="패스_17" data-name="패스 17" d="M149.3,18.621a1.513,1.513,0,1,1-1.513-1.527,1.473,1.473,0,0,1,1.513,1.527M149.018,29.3h-2.47V21.06h2.47Z" transform="translate(-76.306 0.003)"/>
    <path id="패스_18" data-name="패스 18" d="M155.893,23.2h-1.61v6.066h-2.47V23.2H150.2V21.059h1.61V18.622h2.47v2.437h1.61Z" transform="translate(-76.343 0.003)"/>
    <path id="패스_19" data-name="패스 19" d="M156.5,25.164a3.979,3.979,0,0,1,3.954-4.3A2.732,2.732,0,0,1,162.79,21.9v-.84h2.47v8.209h-2.47v-.84a2.733,2.733,0,0,1-2.332,1.037,3.98,3.98,0,0,1-3.954-4.3m6.328,0a1.982,1.982,0,0,0-1.984-2.171,1.956,1.956,0,0,0-1.929,2.171,1.956,1.956,0,0,0,1.929,2.172,1.982,1.982,0,0,0,1.984-2.172" transform="translate(-76.402 0.004)"/>
    <path id="패스_20" data-name="패스 20" d="M167.214,21.059h2.47v.84a2.66,2.66,0,0,1,2.276-1.036c1.887,0,3.178,1.386,3.178,3.656v4.75h-2.471V24.94c0-1.247-.5-1.934-1.429-1.934-.971,0-1.554.771-1.554,2.045v4.218h-2.47Z" transform="translate(-76.503 0.004)"/>
    <path id="패스_21" data-name="패스 21" d="M76.146,38.924h4.343c2.941,0,4.662,1.652,4.662,4.175,0,2.55-1.721,4.2-4.662,4.2H78.67v3.041H76.146Zm4.232,6.122c1.4,0,2.249-.673,2.249-1.947s-.848-1.919-2.249-1.919H78.67v3.867Z" transform="translate(-75.646 0.007)"/>
    <path id="패스_22" data-name="패스 22" d="M86.533,38.573H89v4.4a2.659,2.659,0,0,1,2.276-1.036c1.887,0,3.178,1.387,3.178,3.657v4.75H91.986v-4.33c0-1.247-.5-1.933-1.429-1.933-.971,0-1.554.77-1.554,2.045v4.218h-2.47Z" transform="translate(-75.744 0.007)"/>
    <path id="패스_23" data-name="패스 23" d="M98.951,39.694a1.512,1.512,0,1,1-1.512-1.527,1.473,1.473,0,0,1,1.512,1.527M98.674,50.37H96.2V42.133h2.47Z" transform="translate(-75.832 0.007)"/>
    <rect id="사각형_17" data-name="사각형 17" width="2.47" height="11.769" transform="translate(24.699 38.58)"/>
    <path id="패스_24" data-name="패스 24" d="M104.943,38.573h2.47v4.4a2.661,2.661,0,0,1,2.276-1.036c1.887,0,3.178,1.387,3.178,3.657v4.75H110.4v-4.33c0-1.247-.5-1.933-1.429-1.933-.971,0-1.554.77-1.554,2.045v4.218h-2.47Z" transform="translate(-75.917 0.007)"/>
    <path id="패스_25" data-name="패스 25" d="M114.2,46.237a3.979,3.979,0,0,1,3.954-4.3,2.732,2.732,0,0,1,2.332,1.036v-.84h2.47v8.209h-2.47V49.5a2.733,2.733,0,0,1-2.332,1.037,3.98,3.98,0,0,1-3.954-4.3m6.328,0a1.982,1.982,0,0,0-1.984-2.171,2.187,2.187,0,0,0,0,4.344,1.982,1.982,0,0,0,1.984-2.172" transform="translate(-76.004 0.007)"/>
    <path id="패스_26" data-name="패스 26" d="M124.907,42.132h2.47v.84a2.661,2.661,0,0,1,2.276-1.036,3,3,0,0,1,1.068.139l.028,2.34a2.712,2.712,0,0,0-1.262-.28,1.9,1.9,0,0,0-2.11,2v4.2h-2.47Z" transform="translate(-76.105 0.007)"/>
    <path id="패스_27" data-name="패스 27" d="M131.991,42.132h2.47v.784a2.278,2.278,0,0,1,2-.98,2.861,2.861,0,0,1,2.415,1.176,3.164,3.164,0,0,1,2.705-1.176c1.873,0,3.122,1.372,3.122,3.656v4.75h-2.471V46.013c0-1.247-.472-1.934-1.373-1.934-.805,0-1.235.645-1.277,1.808v4.455h-2.47V46.013c0-1.247-.473-1.934-1.374-1.934-.8,0-1.234.645-1.277,1.808v4.455h-2.47Z" transform="translate(-76.171 0.007)"/>
    <path id="패스_28" data-name="패스 28" d="M154.705,46.237a4.316,4.316,0,1,1-4.315-4.3,4.16,4.16,0,0,1,4.315,4.3m-6.244,0a1.942,1.942,0,1,0,1.929-2.171,1.964,1.964,0,0,0-1.929,2.171" transform="translate(-76.304 0.007)"/>
    <path id="패스_29" data-name="패스 29" d="M156.238,42.132h2.47v.84a2.659,2.659,0,0,1,2.276-1.036c1.887,0,3.178,1.386,3.178,3.656v4.75h-2.471V46.013c0-1.247-.5-1.934-1.429-1.934-.971,0-1.554.771-1.554,2.045v4.218h-2.47Z" transform="translate(-76.4 0.007)"/>
    <path id="패스_30" data-name="패스 30" d="M168.657,39.694a1.513,1.513,0,1,1-1.513-1.527,1.473,1.473,0,0,1,1.513,1.527M168.38,50.37h-2.47V42.133h2.47Z" transform="translate(-76.488 0.007)"/>
    <path id="패스_31" data-name="패스 31" d="M174.175,50.538a4.3,4.3,0,1,1,0-8.6,3.9,3.9,0,0,1,4.01,3.124h-2.5a1.5,1.5,0,0,0-1.513-.952,2.143,2.143,0,0,0,0,4.259,1.573,1.573,0,0,0,1.554-.98h2.5a3.97,3.97,0,0,1-4.051,3.153" transform="translate(-76.528 0.007)"/>
    <path id="패스_32" data-name="패스 32" d="M75.641,62.071a6.106,6.106,0,1,1,6.105,6,5.876,5.876,0,0,1-6.105-6m9.685,0a3.582,3.582,0,1,0-3.58,3.7,3.525,3.525,0,0,0,3.58-3.7" transform="translate(-75.641 0.01)"/>
    <path id="패스_33" data-name="패스 33" d="M89.4,59.577h2.47v.84a2.659,2.659,0,0,1,2.276-1.036,3,3,0,0,1,1.068.139l.028,2.34a2.712,2.712,0,0,0-1.262-.28,1.9,1.9,0,0,0-2.11,2v4.2H89.4Z" transform="translate(-75.771 0.01)"/>
    <path id="패스_34" data-name="패스 34" d="M100.088,67.983a4.3,4.3,0,1,1,0-8.6A3.9,3.9,0,0,1,104.1,62.5h-2.5a1.5,1.5,0,0,0-1.513-.952,2.143,2.143,0,0,0,0,4.259,1.573,1.573,0,0,0,1.554-.98h2.5a3.97,3.97,0,0,1-4.052,3.153" transform="translate(-75.83 0.01)"/>
    <path id="패스_35" data-name="패스 35" d="M105.559,56.018h2.47v4.4a2.661,2.661,0,0,1,2.276-1.036c1.887,0,3.178,1.387,3.178,3.657v4.75h-2.471v-4.33c0-1.247-.5-1.933-1.429-1.933-.971,0-1.554.77-1.554,2.045v4.218h-2.47Z" transform="translate(-75.923 0.01)"/>
    <path id="패스_36" data-name="패스 36" d="M114.813,63.681a4.233,4.233,0,1,1,8.465,0,5.676,5.676,0,0,1-.056.8h-5.952a1.724,1.724,0,0,0,1.776,1.5,1.671,1.671,0,0,0,1.5-.644h2.483a3.912,3.912,0,0,1-3.982,2.647,4.1,4.1,0,0,1-4.232-4.3m6.05-.812a1.734,1.734,0,0,0-1.818-1.513,1.708,1.708,0,0,0-1.79,1.513Z" transform="translate(-76.01 0.01)"/>
    <path id="패스_37" data-name="패스 37" d="M131.938,62.042h-2.386c-.084-.5-.653-.812-1.374-.812-.75,0-1.291.266-1.291.63,0,.407.541.6,1.929.827,2.4.364,3.261,1.162,3.261,2.577,0,1.68-1.748,2.717-3.816,2.717-2.123,0-3.733-1.064-3.816-2.788h2.386c.083.533.693.883,1.471.883s1.374-.294,1.374-.673-.556-.643-1.956-.853c-1.944-.3-3.219-.9-3.219-2.564,0-1.6,1.651-2.605,3.719-2.605,2.026,0,3.622,1.036,3.719,2.661" transform="translate(-76.1 0.01)"/>
    <path id="패스_38" data-name="패스 38" d="M138.506,61.72H136.9v6.066h-2.47V61.72h-1.61V59.577h1.61V57.14h2.47v2.437h1.61Z" transform="translate(-76.179 0.01)"/>
    <path id="패스_39" data-name="패스 39" d="M139.719,59.577h2.47v.84a2.659,2.659,0,0,1,2.276-1.036,3,3,0,0,1,1.068.139l.028,2.34a2.712,2.712,0,0,0-1.262-.28,1.9,1.9,0,0,0-2.11,2v4.2h-2.47Z" transform="translate(-76.244 0.01)"/>
    <path id="패스_40" data-name="패스 40" d="M146.088,63.681a3.979,3.979,0,0,1,3.954-4.3,2.732,2.732,0,0,1,2.332,1.036v-.84h2.47v8.209h-2.47v-.84a2.733,2.733,0,0,1-2.332,1.037,3.98,3.98,0,0,1-3.954-4.3m6.328,0a1.982,1.982,0,0,0-1.984-2.171,2.187,2.187,0,0,0,0,4.344,1.982,1.982,0,0,0,1.984-2.172" transform="translate(-76.304 0.01)"/>
  </g>
</svg>
