<?xml version="1.0" encoding="UTF-8"?>
<svg id="_레이어_1" data-name="레이어_1" xmlns="http://www.w3.org/2000/svg" viewBox="0 0 24 24">
  <defs>
    <style>
      .cls-1 {
        fill: #6557df;
      }
    </style>
  </defs>
  <circle cx="12" cy="12" r="12"/>
  <path class="cls-1" d="M6.97,4.72h6.32c3.23,0,5.05,1.68,5.05,4.34,0,1.04-.7,2.21-1.7,2.59,1.39.45,2.37,1.8,2.37,3.21,0,2.7-1.93,4.41-5.2,4.41h-6.86V4.72ZM13.14,10.62c1.23,0,1.95-.54,1.95-1.55s-.71-1.57-1.95-1.57h-2.93v3.12h2.93ZM13.68,16.51c1.29,0,2.09-.57,2.09-1.64s-.8-1.64-2.09-1.64h-3.46v3.29h3.46Z"/>
</svg>